# xmcd CD database file
#
# Track frame offsets:
#	150
#	14688
#	23211
#	36036
#	47954
#	61004
#	72642
#	84699
#	97299
#	109483
#	122629
#	133104
#	145404
#	157906
#	172619
#	186741
#	201053
#	213544
#	227054
#	240546
#	252405
#	266880
#	279428
#	296581
#	309381
#	320995
#	332381
#	343631
#
# Disc length: 4744 seconds
#
# Revision: 0
# Processed by: cddbd v1.5.2PL0 Copyright (c) Steve Scherf et al.
# Submitted via: CDex 1.70beta2
#
DISCID=b712861c
DTITLE=Nat King Cole - The Unforgettable Nat King Cole CD2
DYEAR=2008
DGENRE=Jazz
TTITLE0=Can't I
TTITLE1=Almost Like Being In Love
TTITLE2=Darling, Je Vous Aime Beaucoup
TTITLE3=Answer Me, My Love
TTITLE4=Smile
TTITLE5=A Blossom Fell
TTITLE6=Autumn Leaves
TTITLE7=Let's Fall In Love
TTITLE8=Love Is A Many-Splendoured Thing
TTITLE9=Too Young To Go Steady
TTITLE10=To The Ends Of The Earth
TTITLE11=Caravan
TTITLE12=Love Letters
TTITLE13=Stardust
TTITLE14=It's All In The Game
TTITLE15=When I Fall In Love
TTITLE16=When Sunny Gets Blue
TTITLE17=At Last
TTITLE18=Stay As Sweet As You Are
TTITLE19=Send For Me
TTITLE20=Don't Get Around Much Anymore
TTITLE21=The Song Is Ended, But The Melody Lingers On
TTITLE22=These Foolish Things Remind Me Of You
TTITLE23=Once In A While
TTITLE24=Around The World
TTITLE25=When Your Lover Has Gone
TTITLE26=Fascination
TTITLE27=The Partys Over
EXTD=YEAR: 2008
EXTT0=
EXTT1=
EXTT2=
EXTT3=
EXTT4=
EXTT5=
EXTT6=
EXTT7=
EXTT8=
EXTT9=
EXTT10=
EXTT11=
EXTT12=
EXTT13=
EXTT14=
EXTT15=
EXTT16=
EXTT17=
EXTT18=
EXTT19=
EXTT20=
EXTT21=
EXTT22=
EXTT23=
EXTT24=
EXTT25=
EXTT26=
EXTT27=
PLAYORDER=
